<svg width="138" height="137" viewBox="0 0 138 137" fill="none" xmlns="http://www.w3.org/2000/svg">
<g id="Cabe&#195;&#167;a">
<path id="Vector" d="M100.665 102.116L73.3885 134.472C71.1926 137.077 67.1766 137.077 64.9807 134.472L37.704 102.116C34.6889 98.5411 37.2322 93.0733 41.9092 93.0733H96.4626C101.137 93.0733 103.678 98.5411 100.665 102.116Z" fill="#FFB4E4"/>
<g id="Group">
<g id="Group_2">
<path id="Vector_2" d="M41.7063 47.7464C57.3318 41.5775 67.1368 29.327 63.6062 20.3842C60.0756 11.4414 44.5465 9.19278 28.9209 15.3617C13.2953 21.5306 3.4904 33.7811 7.02098 42.7239C10.5516 51.6667 26.0807 53.9153 41.7063 47.7464Z" fill="black"/>
<path id="Vector_3" d="M50.0166 66.209C52.4982 49.3222 45.5901 34.322 34.5868 32.705C23.5835 31.088 12.6518 43.4665 10.1702 60.3532C7.68852 77.24 14.5967 92.2402 25.6 93.8572C36.6033 95.4742 47.535 83.0957 50.0166 66.209Z" fill="black"/>
</g>
<g id="Group_3">
<path id="Vector_4" d="M131.049 42.7227C134.58 33.7799 124.775 21.5294 109.149 15.3605C93.5238 9.19159 77.9947 11.4403 74.4641 20.3831C70.9335 29.3258 80.7384 41.5763 96.364 47.7452C111.99 53.9141 127.519 51.6655 131.049 42.7227Z" fill="black"/>
<path id="Vector_5" d="M112.498 93.8512C123.501 92.2342 130.409 77.234 127.928 60.3472C125.446 43.4605 114.514 31.082 103.511 32.699C92.5077 34.316 85.5995 49.3163 88.0812 66.203C90.5628 83.0897 101.494 95.4683 112.498 93.8512Z" fill="black"/>
</g>
</g>
<path id="Vector_6" d="M105.127 42.4685V78.6119C105.127 89.6822 96.1541 98.6552 85.0837 98.6552H53.0626C41.9948 98.6552 33.0219 89.6822 33.0219 78.6119V42.4685C33.0219 28.3881 42.1944 16.4518 54.8852 12.3063C57.9885 11.2926 61.3019 10.7456 64.7422 10.7456H73.4015C76.8444 10.7456 80.1552 11.2926 83.2585 12.3063C95.9544 16.4493 105.127 28.3881 105.127 42.4685Z" fill="#F7E8DD"/>
<g id="Group_4">
<g id="Group_5">
<path id="Vector_7" d="M46.5681 69.8359C42.4174 73.31 37.45 75.2337 32.9907 74.8707V42.4815C32.9907 28.4011 42.1633 16.4648 54.8541 12.3193C55.0459 13.8437 55.3233 15.4719 55.7018 17.2115C59.15 33.1248 64.6722 33.4411 65.1596 45.5667C65.6029 56.5463 51.9711 65.3144 46.5681 69.8359Z" fill="#DB995D"/>
<path id="Vector_8" d="M105.096 42.4815V74.8707C100.637 75.2337 95.6692 73.31 91.5184 69.8359C86.1155 65.3144 72.4836 56.5463 72.9244 45.5641C73.4118 33.4385 78.9366 33.1222 82.3822 17.2089C82.7607 15.4693 83.0355 13.8411 83.2299 12.3167C95.9233 16.4648 105.096 28.4011 105.096 42.4815Z" fill="#DB995D"/>
</g>
</g>
<path id="Vector_9" d="M69.0433 78.6767C68.7581 78.6767 68.5248 78.4433 68.5248 78.1581V64.6118C68.5248 64.3267 68.7581 64.0933 69.0433 64.0933C69.3285 64.0933 69.5618 64.3267 69.5618 64.6118V78.1581C69.5618 78.4433 69.3285 78.6767 69.0433 78.6767Z" fill="black"/>
<path id="Vector_10" d="M73.8941 81.7567C73.8086 81.7567 73.723 81.7359 73.6426 81.6919L69.0434 79.1459L64.4441 81.6919C64.1926 81.8319 63.8789 81.7385 63.7389 81.4896C63.6015 81.2381 63.6923 80.9244 63.9412 80.7844L68.7919 78.1011C68.9474 78.0156 69.1367 78.0156 69.2949 78.1011L74.1456 80.7844C74.3971 80.9219 74.4878 81.2381 74.3478 81.4896C74.2519 81.6607 74.0756 81.7567 73.8941 81.7567Z" fill="black"/>
<path id="Vector_11" d="M62.1704 59.6211L62.7745 58.75C65.8104 54.3789 72.2763 54.3789 75.3123 58.75L75.9164 59.6211C77.3786 61.7289 75.8723 64.6093 73.3082 64.6093H64.7812C62.2145 64.6119 60.7056 61.7289 62.1704 59.6211Z" fill="black"/>
<path id="Vector_12" d="M34.7097 17.2737C33.2371 17.2737 31.5311 17.0067 29.5556 16.3585C25.6771 15.0804 22.8019 12.1481 21.6637 8.31111C20.7537 5.24148 21.1271 2.06037 22.6152 0.209257C22.7941 -0.0137061 23.1208 -0.0500018 23.3437 0.128887C23.5667 0.307776 23.603 0.634442 23.4241 0.857405C22.1615 2.42852 21.8556 5.3037 22.6567 8.01555C23.6963 11.5207 26.3278 14.2041 29.8771 15.3707C36.9004 17.6833 40.1619 14.7926 41.4815 12.8611C41.6682 12.5889 41.8341 12.3089 41.9871 12.0211C41.9456 11.9952 41.9015 11.9667 41.86 11.9407C39.5008 10.4033 37.8519 7.72778 38.023 5.71852C38.1137 4.66852 38.6945 3.85963 39.6615 3.44222C40.9345 2.89259 42.1374 3.15185 42.9619 4.15C44.1726 5.6174 44.4682 8.72333 43.3326 11.5752C44.5797 12.1585 46.3997 12.5681 48.3286 11.5104C54.066 8.37333 52.0126 1.44074 51.9219 1.14778C51.8389 0.872963 51.9919 0.585185 52.2641 0.49963C52.5389 0.416667 52.8267 0.569628 52.9123 0.84185C52.9382 0.92222 55.3104 8.8737 48.8263 12.4204C46.9674 13.4393 44.896 13.4652 42.8971 12.5215C42.7311 12.8378 42.5445 13.1463 42.3397 13.447C41.2404 15.0596 38.9537 17.2737 34.7097 17.2737ZM40.9448 4.19407C40.6752 4.19407 40.3848 4.26148 40.0737 4.3963C39.4489 4.66593 39.1171 5.1274 39.0574 5.80666C38.9174 7.43481 40.3926 9.74222 42.4174 11.067C43.3378 8.64296 43.1511 6.01407 42.1608 4.81111C41.8263 4.40148 41.4193 4.19407 40.9448 4.19407Z" fill="black"/>
<g id="Group_6">
<path id="Vector_13" d="M54.5145 52.1363C57.1663 52.1363 59.316 49.9866 59.316 47.3348C59.316 44.683 57.1663 42.5333 54.5145 42.5333C51.8627 42.5333 49.713 44.683 49.713 47.3348C49.713 49.9866 51.8627 52.1363 54.5145 52.1363Z" fill="black"/>
<path id="Vector_14" d="M56.0649 47.2752C56.9555 47.2752 57.6775 46.5532 57.6775 45.6626C57.6775 44.772 56.9555 44.05 56.0649 44.05C55.1743 44.05 54.4523 44.772 54.4523 45.6626C54.4523 46.5532 55.1743 47.2752 56.0649 47.2752Z" fill="white"/>
<path id="Vector_15" d="M52.8759 48.517C53.3298 48.517 53.6978 48.1491 53.6978 47.6952C53.6978 47.2413 53.3298 46.8733 52.8759 46.8733C52.422 46.8733 52.0541 47.2413 52.0541 47.6952C52.0541 48.1491 52.422 48.517 52.8759 48.517Z" fill="white"/>
</g>
<g id="Group_7">
<path id="Vector_16" d="M83.5697 52.1363C86.2215 52.1363 88.3711 49.9866 88.3711 47.3348C88.3711 44.683 86.2215 42.5333 83.5697 42.5333C80.9179 42.5333 78.7682 44.683 78.7682 47.3348C78.7682 49.9866 80.9179 52.1363 83.5697 52.1363Z" fill="black"/>
<path id="Vector_17" d="M82.0219 47.2752C82.9125 47.2752 83.6345 46.5532 83.6345 45.6626C83.6345 44.772 82.9125 44.05 82.0219 44.05C81.1313 44.05 80.4093 44.772 80.4093 45.6626C80.4093 46.5532 81.1313 47.2752 82.0219 47.2752Z" fill="white"/>
<path id="Vector_18" d="M85.2082 48.517C85.6621 48.517 86.0301 48.1491 86.0301 47.6952C86.0301 47.2413 85.6621 46.8733 85.2082 46.8733C84.7543 46.8733 84.3864 47.2413 84.3864 47.6952C84.3864 48.1491 84.7543 48.517 85.2082 48.517Z" fill="white"/>
</g>
<path id="Vector_19" d="M89.7478 54.2752H86.1234C85.1641 54.2752 84.3889 53.4974 84.3889 52.5407C84.3889 51.5815 85.1667 50.8063 86.1234 50.8063H89.7478C90.7071 50.8063 91.4822 51.5841 91.4822 52.5407C91.4848 53.5 90.7071 54.2752 89.7478 54.2752Z" fill="#6BDFF2"/>
<path id="Vector_20" d="M51.9608 54.2752H48.3364C47.3771 54.2752 46.6019 53.4974 46.6019 52.5407C46.6019 51.5815 47.3797 50.8063 48.3364 50.8063H51.9608C52.9201 50.8063 53.6953 51.5841 53.6953 52.5407C53.6979 53.5 52.9201 54.2752 51.9608 54.2752Z" fill="#6BDFF2"/>
<path id="Vector_21" d="M48.2067 40.913C47.9889 40.913 47.7867 40.7756 47.7141 40.5552C47.6234 40.283 47.7737 39.99 48.0434 39.9018L55.0278 37.6048C55.3 37.5141 55.593 37.6644 55.6811 37.9341C55.7719 38.2063 55.6215 38.4993 55.3519 38.5874L48.3674 40.8844C48.313 40.9026 48.2586 40.913 48.2067 40.913Z" fill="black"/>
<path id="Vector_22" d="M90.1704 40.913C90.1159 40.913 90.0615 40.9052 90.0096 40.887L83.0252 38.59C82.753 38.4993 82.6052 38.2063 82.6959 37.9367C82.7841 37.6644 83.0796 37.5167 83.3493 37.6074L90.3337 39.9044C90.6059 39.9952 90.7537 40.2881 90.663 40.5578C90.5904 40.773 90.3882 40.913 90.1704 40.913Z" fill="black"/>
</g>
</svg>
