<svg width="169" height="112" viewBox="0 0 169 112" fill="none" xmlns="http://www.w3.org/2000/svg">
<g id="Cachorro">
<path id="Vector" d="M118.118 59.0882C124.597 37.0278 154.977 6.79037 164.354 15.2604C168.013 18.5633 159.812 29.8307 159.812 29.8307C159.812 29.8307 165.511 28.607 167.717 31.9541C170.903 36.7919 159.74 47.5096 164.562 53.2782C174.694 65.4011 166.833 83.863 122.533 89.603L118.118 59.0882Z" fill="#DB995D"/>
<path id="Vector_2" d="M114.17 16.777V99.5067H33.8123V16.777C33.8123 7.54482 41.2945 0.0625963 50.5241 0.0625963H97.4578C104.02 0.0625963 109.695 3.8426 112.43 9.34149V9.34407C113.545 11.5841 114.17 14.1067 114.17 16.777Z" fill="#F7E8DD"/>
<path id="Vector_3" d="M36.2649 99.5067H15.3115V59.9074C15.3115 48.9433 24.1989 40.0585 35.1604 40.0585H36.2623V99.5067H36.2649Z" fill="#F7E8DD"/>
<path id="Vector_4" d="M76.4449 99.5067H12.0656C5.56856 99.5067 0.300415 94.2385 0.300415 87.7415C0.300415 81.2444 5.56856 75.9763 12.0656 75.9763H76.4423V99.5067H76.4449Z" fill="#F7E8DD"/>
<path id="Vector_5" d="M62.2245 111.272H52.0175C45.5205 111.272 40.2523 106.004 40.2523 99.5067C40.2523 93.0096 45.5205 87.7415 52.0175 87.7415H73.9897V99.5067C73.9897 106.004 68.7242 111.272 62.2245 111.272Z" fill="#F7E8DD"/>
<path id="Vector_6" d="M111.717 99.5067H132.67V59.9074C132.67 48.9433 123.783 40.0585 112.821 40.0585H111.72V99.5067H111.717Z" fill="#F7E8DD"/>
<path id="Vector_7" d="M71.5371 99.5067H135.914C142.411 99.5067 147.679 94.2385 147.679 87.7415C147.679 81.2444 142.411 75.9763 135.914 75.9763H71.5371V99.5067Z" fill="#F7E8DD"/>
<path id="Vector_8" d="M85.7549 111.272H95.962C102.459 111.272 107.727 106.004 107.727 99.5067C107.727 93.0096 102.459 87.7415 95.962 87.7415H73.9897V99.5067C73.9897 106.004 79.2579 111.272 85.7549 111.272Z" fill="#F7E8DD"/>
</g>
</svg>
