<svg width="25" height="24" viewBox="0 0 25 24" fill="none" xmlns="http://www.w3.org/2000/svg">
<g id="icon/chat_24px">
<path id="sms" d="M8.25 11.5C8.53333 11.5 8.77083 11.4042 8.9625 11.2125C9.15417 11.0208 9.25 10.7833 9.25 10.5C9.25 10.2167 9.15417 9.97917 8.9625 9.7875C8.77083 9.59583 8.53333 9.5 8.25 9.5C7.96667 9.5 7.72917 9.59583 7.5375 9.7875C7.34583 9.97917 7.25 10.2167 7.25 10.5C7.25 10.7833 7.34583 11.0208 7.5375 11.2125C7.72917 11.4042 7.96667 11.5 8.25 11.5ZM12.25 11.5C12.5333 11.5 12.7708 11.4042 12.9625 11.2125C13.1542 11.0208 13.25 10.7833 13.25 10.5C13.25 10.2167 13.1542 9.97917 12.9625 9.7875C12.7708 9.59583 12.5333 9.5 12.25 9.5C11.9667 9.5 11.7292 9.59583 11.5375 9.7875C11.3458 9.97917 11.25 10.2167 11.25 10.5C11.25 10.7833 11.3458 11.0208 11.5375 11.2125C11.7292 11.4042 11.9667 11.5 12.25 11.5ZM16.25 11.5C16.5333 11.5 16.7708 11.4042 16.9625 11.2125C17.1542 11.0208 17.25 10.7833 17.25 10.5C17.25 10.2167 17.1542 9.97917 16.9625 9.7875C16.7708 9.59583 16.5333 9.5 16.25 9.5C15.9667 9.5 15.7292 9.59583 15.5375 9.7875C15.3458 9.97917 15.25 10.2167 15.25 10.5C15.25 10.7833 15.3458 11.0208 15.5375 11.2125C15.7292 11.4042 15.9667 11.5 16.25 11.5ZM6.25 18L3.95 20.3C3.63333 20.6167 3.27083 20.6875 2.8625 20.5125C2.45417 20.3375 2.25 20.025 2.25 19.575V5C2.25 4.45 2.44583 3.97917 2.8375 3.5875C3.22917 3.19583 3.7 3 4.25 3H20.25C20.8 3 21.2708 3.19583 21.6625 3.5875C22.0542 3.97917 22.25 4.45 22.25 5V16C22.25 16.55 22.0542 17.0208 21.6625 17.4125C21.2708 17.8042 20.8 18 20.25 18H6.25ZM4.25 16H20.25V5H4.25V16Z" fill="#3A484D"/>
</g>
</svg>
