<svg width="148" height="114" viewBox="0 0 148 114" fill="none" xmlns="http://www.w3.org/2000/svg">
<g id="Detalhes">
<path id="Vector" d="M56.8836 29.0859C56.3495 41.1596 56.3781 53.5418 33.8121 63.3833V17.777C33.8121 8.54482 41.2944 1.0626 50.524 1.0626H52.0121C54.781 2.41593 57.2388 4.69223 58.7944 8.38149C63.3729 19.2367 57.2984 19.6878 56.8836 29.0859Z" fill="#DB995D"/>
<path id="Vector_2" d="M114.17 17.777V73.453C91.6062 63.6089 91.6322 51.2292 91.0955 39.1555C90.6807 29.7574 84.6088 29.3063 89.1847 18.4511C94.1755 6.61592 108.455 9.33037 112.427 10.3415V10.3441C113.545 12.5841 114.17 15.1067 114.17 17.777Z" fill="#DB995D"/>
<path id="Vector_3" d="M15.3115 77.4818C15.0263 77.4818 14.793 77.2485 14.793 76.9633V60.9074C14.793 50.2259 23.1333 41.2996 33.7785 40.5841C34.0637 40.5581 34.3126 40.7811 34.3307 41.0663C34.3489 41.3515 34.1337 41.6004 33.8485 41.6185C23.7452 42.2978 15.8326 50.7678 15.8326 60.9074V76.9633C15.83 77.2511 15.5967 77.4818 15.3115 77.4818Z" fill="black"/>
<path id="Vector_4" d="M132.67 77.4819C132.385 77.4819 132.152 77.2485 132.152 76.9633V60.9074C132.152 50.7704 124.239 42.2978 114.136 41.6211C113.851 41.603 113.633 41.3541 113.654 41.0689C113.672 40.7837 113.926 40.5633 114.206 40.5867C124.851 41.3022 133.189 50.2285 133.189 60.9074V76.9633C133.189 77.2511 132.956 77.4819 132.67 77.4819Z" fill="black"/>
<path id="Vector_5" d="M15.1714 102.179C12.9496 102.179 10.7537 101.365 9.29923 99.8689C8.98552 99.5448 8.71589 99.2026 8.49034 98.8448C7.4896 99.2726 6.34626 99.4722 5.23404 99.1611C1.50071 98.1163 -0.321887 93.7944 0.315891 90.4137C0.370335 90.1311 0.642561 89.947 0.922561 90.0015C1.20515 90.0559 1.38923 90.3256 1.33478 90.6081C0.779967 93.5378 2.32774 97.2737 5.51404 98.1656C6.35663 98.4015 7.23812 98.2537 8.02886 97.9245C7.46886 96.4778 7.55441 94.8263 8.30626 93.1048C8.70552 92.1896 9.46256 91.5363 10.2351 91.4378C10.8626 91.3574 11.4614 91.6374 11.9229 92.2259C13.1726 93.8152 12.0837 96.0811 10.5437 97.5148C10.2274 97.8104 9.84626 98.1033 9.41848 98.3652C9.59478 98.64 9.80219 98.9019 10.0433 99.1481C11.9333 101.093 15.2855 101.707 18.0103 100.608C18.2774 100.499 18.5781 100.629 18.6844 100.896C18.7907 101.16 18.6637 101.463 18.3966 101.57C17.3752 101.979 16.2707 102.179 15.1714 102.179ZM10.4529 92.4567C10.4166 92.4567 10.3881 92.4593 10.3674 92.4619C9.96293 92.5137 9.50663 92.9467 9.25774 93.5145C8.64589 94.9145 8.55256 96.2522 8.96478 97.4267C9.29404 97.2167 9.5896 96.9833 9.84108 96.75C10.8444 95.8167 12.0111 94.0096 11.1114 92.8611C10.8289 92.5085 10.5877 92.4567 10.4529 92.4567Z" fill="black"/>
<path id="Vector_6" d="M54.7059 113.332C52.484 113.332 50.2881 112.518 48.8336 111.022C48.5199 110.698 48.2503 110.356 48.0248 109.998C47.0214 110.426 45.8807 110.626 44.7685 110.314C41.0351 109.27 39.2125 104.948 39.8503 101.567C39.9048 101.284 40.177 101.1 40.457 101.155C40.7396 101.209 40.9236 101.479 40.8692 101.761C40.3144 104.691 41.8622 108.427 45.0485 109.319C45.8911 109.555 46.7725 109.407 47.5633 109.078C47.0033 107.631 47.0888 105.98 47.8407 104.258C48.2399 103.343 48.997 102.69 49.7696 102.591C50.397 102.513 50.9959 102.791 51.4599 103.379C52.7096 104.971 51.6207 107.237 50.0807 108.668C49.7644 108.964 49.3833 109.257 48.9555 109.519C49.1318 109.793 49.3392 110.055 49.5803 110.301C51.4703 112.246 54.8225 112.86 57.5474 111.761C57.8118 111.652 58.1151 111.782 58.2214 112.049C58.3277 112.316 58.2007 112.617 57.9336 112.723C56.9096 113.133 55.8051 113.332 54.7059 113.332ZM49.9874 103.61C49.9511 103.61 49.9225 103.613 49.9018 103.615C49.4973 103.667 49.0411 104.1 48.7922 104.668C48.1803 106.068 48.087 107.406 48.4992 108.58C48.8285 108.37 49.124 108.137 49.3755 107.903C50.3788 106.97 51.5455 105.163 50.6459 104.014C50.3633 103.662 50.1222 103.61 49.9874 103.61Z" fill="black"/>
<path id="Vector_7" d="M73.9896 91.0281C73.7044 91.0281 73.4711 90.7948 73.4711 90.5096V43.3011C73.4711 43.0159 73.7044 42.7826 73.9896 42.7826C74.2748 42.7826 74.5081 43.0159 74.5081 43.3011V90.507C74.5081 90.7948 74.2774 91.0281 73.9896 91.0281Z" fill="black"/>
<path id="Vector_8" d="M55.9685 86.1696C55.6833 86.1696 55.45 85.9363 55.45 85.6511V65.6959C55.45 65.4107 55.6833 65.1774 55.9685 65.1774C56.2537 65.1774 56.487 65.4107 56.487 65.6959V85.6511C56.487 85.9389 56.2537 86.1696 55.9685 86.1696Z" fill="black"/>
<path id="Vector_9" d="M132.808 102.179C131.708 102.179 130.607 101.979 129.58 101.567C129.316 101.461 129.186 101.157 129.292 100.893C129.398 100.629 129.702 100.499 129.966 100.605C132.694 101.704 136.043 101.093 137.933 99.1456C138.174 98.8993 138.382 98.6374 138.558 98.3626C138.13 98.1007 137.749 97.8052 137.433 97.5122C135.893 96.0811 134.807 93.8152 136.054 92.2233C136.515 91.6348 137.114 91.3548 137.741 91.4352C138.514 91.5337 139.271 92.187 139.67 93.1022C140.422 94.8237 140.508 96.4726 139.948 97.9219C140.738 98.2511 141.62 98.3989 142.463 98.163C145.649 97.2711 147.194 93.5352 146.642 90.6056C146.587 90.3256 146.774 90.0533 147.054 89.9989C147.334 89.9444 147.606 90.1311 147.661 90.4111C148.298 93.7918 146.476 98.1137 142.743 99.1585C141.63 99.4696 140.487 99.27 139.486 98.8422C139.263 99.2 138.994 99.5448 138.677 99.8663C137.228 101.365 135.032 102.179 132.808 102.179ZM137.529 92.4567C137.391 92.4567 137.15 92.5085 136.873 92.8637C135.971 94.0122 137.137 95.8193 138.141 96.7526C138.392 96.9859 138.688 97.2193 139.017 97.4293C139.427 96.2548 139.333 94.917 138.724 93.517C138.475 92.9493 138.019 92.5163 137.614 92.4644C137.596 92.4618 137.565 92.4567 137.529 92.4567Z" fill="black"/>
<path id="Vector_10" d="M93.2733 113.332C92.174 113.332 91.0722 113.133 90.0455 112.72C89.7811 112.614 89.6515 112.311 89.7577 112.046C89.864 111.782 90.1674 111.652 90.4318 111.759C93.1592 112.858 96.5088 112.243 98.3989 110.299C98.64 110.053 98.8474 109.791 99.0237 109.516C98.5959 109.254 98.2148 108.959 97.8985 108.666C96.3585 107.234 95.2722 104.969 96.5192 103.377C96.9807 102.788 97.5796 102.511 98.2096 102.589C98.9822 102.687 99.7366 103.34 100.136 104.256C100.888 105.977 100.973 107.626 100.413 109.075C101.204 109.404 102.086 109.552 102.928 109.316C106.114 108.424 107.66 104.689 107.107 101.759C107.053 101.479 107.24 101.207 107.52 101.152C107.8 101.098 108.072 101.284 108.126 101.564C108.767 104.945 106.941 109.267 103.208 110.312C102.096 110.623 100.953 110.423 99.9518 109.996C99.7288 110.353 99.4592 110.698 99.1429 111.02C97.6911 112.516 95.4977 113.332 93.2733 113.332ZM97.9944 103.61C97.857 103.61 97.6159 103.662 97.3385 104.017C96.4363 105.166 97.6029 106.973 98.6088 107.906C98.8577 108.139 99.1559 108.373 99.4851 108.583C99.8948 107.408 99.8014 106.07 99.1922 104.67C98.9433 104.103 98.487 103.67 98.0826 103.618C98.0592 103.613 98.0307 103.61 97.9944 103.61Z" fill="black"/>
<path id="Vector_11" d="M92.0133 86.1696C91.7281 86.1696 91.4948 85.9363 91.4948 85.6511V65.6959C91.4948 65.4107 91.7281 65.1774 92.0133 65.1774C92.2985 65.1774 92.5318 65.4107 92.5318 65.6959V85.6511C92.5318 85.9389 92.301 86.1696 92.0133 86.1696Z" fill="black"/>
<path id="Vector_12" d="M114.17 86.1696C113.884 86.1696 113.651 85.9363 113.651 85.6511V17.777C113.651 17.4919 113.884 17.2585 114.17 17.2585C114.455 17.2585 114.688 17.4919 114.688 17.777V85.6511C114.688 85.9389 114.457 86.1696 114.17 86.1696Z" fill="black"/>
<path id="Vector_13" d="M33.8122 86.1696C33.527 86.1696 33.2937 85.9363 33.2937 85.6511V17.777C33.2937 8.27519 41.0222 0.544078 50.5241 0.544078H59.7019C59.987 0.544078 60.2204 0.777411 60.2204 1.0626C60.2204 1.34778 59.987 1.58111 59.7019 1.58111H50.5241C41.5952 1.58111 34.3307 8.84556 34.3307 17.777V85.6511C34.3307 85.9389 34.0974 86.1696 33.8122 86.1696Z" fill="black"/>
</g>
</svg>
