<svg width="194" height="202" viewBox="0 0 194 202" fill="none" xmlns="http://www.w3.org/2000/svg">
<g id="Dog">
<g id="Layer_9">
<g id="Group">
<path id="Vector" d="M178.972 104.715L168.184 86.4951L126.853 110.967L137.641 129.187L178.972 104.715Z" fill="#F7E8DD"/>
</g>
<g id="Group_2">
<path id="Vector_2" d="M183.939 105.484C189.053 104.03 192.357 99.8904 191.318 96.2379C190.279 92.5853 185.292 90.803 180.178 92.257C175.064 93.7111 171.76 97.8509 172.799 101.503C173.837 105.156 178.825 106.938 183.939 105.484Z" fill="#F7E8DD"/>
</g>
<g id="Group_3">
<path id="Vector_3" d="M187.278 109.156C187.428 106.027 183.998 103.32 179.617 103.111C175.236 102.902 171.563 105.269 171.414 108.398C171.264 111.528 174.695 114.234 179.075 114.444C183.456 114.653 187.129 112.286 187.278 109.156Z" fill="#F7E8DD"/>
</g>
<g id="Group_4">
<path id="Vector_4" d="M180.271 92.4129C184.005 88.6281 184.84 83.398 182.137 80.7312C179.433 78.0644 174.215 78.9707 170.481 82.7555C166.748 86.5402 165.912 91.7703 168.616 94.4371C171.319 97.1039 176.537 96.1976 180.271 92.4129Z" fill="#F7E8DD"/>
</g>
<g id="Group_5">
<path id="Vector_5" d="M169.251 85.6809C171.175 81.7364 170.452 77.4246 167.634 76.0502C164.817 74.6758 160.974 76.7593 159.049 80.7037C157.125 84.6482 157.848 88.9601 160.666 90.3345C163.483 91.7089 167.326 89.6254 169.251 85.6809Z" fill="#F7E8DD"/>
</g>
<g id="Group_6">
<path id="Vector_6" d="M174.164 105.895C173.064 106.826 171.905 107.373 170.492 106.992C169.22 106.65 168.483 105.724 167.991 104.568C167.405 103.189 167.311 101.734 167.407 100.261C167.425 99.9633 167.35 99.8155 167.101 99.6833C165.831 99.017 164.688 98.1822 163.775 97.0596C163.282 96.453 162.904 95.7815 162.746 95.0089C162.417 93.3911 163.238 91.9185 164.848 91.2626C166.793 90.4719 168.906 90.7441 170.866 91.3222C173.531 92.1052 176.007 92.3904 177.334 96.2637C177.404 96.4659 177.384 96.5255 177.43 96.733C177.827 98.5555 177.101 100.137 176.58 101.897C176.183 103.238 175.509 104.399 174.597 105.439C174.446 105.613 174.28 105.773 174.164 105.895Z" fill="#FFAFE6"/>
</g>
<g id="Group_7">
<path id="Vector_7" d="M162.077 99.7741C160.788 97.5989 161.392 94.6122 162.961 92.8804C163.114 92.7119 163.376 92.6989 163.544 92.8519C163.71 93.0048 163.726 93.2667 163.573 93.4352C162.046 95.1178 161.563 98.1615 163.277 100.01C163.728 100.495 164.356 100.749 164.999 100.853C165.224 99.6859 165.942 98.6333 167.099 97.8245C167.729 97.3837 168.491 97.2593 169.038 97.5056C169.484 97.7078 169.766 98.133 169.834 98.7059C170.013 100.251 168.392 101.301 166.808 101.62C166.487 101.685 166.126 101.724 165.748 101.726C165.753 101.97 165.784 102.216 165.841 102.468C166.295 104.485 168.229 106.219 170.441 106.59C170.666 106.629 170.816 106.841 170.78 107.064C170.741 107.29 170.529 107.44 170.306 107.404C167.778 106.979 165.564 104.98 165.038 102.649C164.962 102.317 164.926 101.991 164.923 101.669C164.099 101.547 163.275 101.218 162.673 100.57C162.44 100.321 162.243 100.054 162.077 99.7741ZM168.903 98.4441C168.828 98.3171 168.737 98.2756 168.696 98.2574C168.416 98.133 167.952 98.2315 167.568 98.4985C166.622 99.1596 166.028 99.9841 165.826 100.902C166.116 100.894 166.393 100.86 166.642 100.811C167.664 100.604 169.139 99.8985 169.012 98.8019C168.994 98.6385 168.952 98.5245 168.903 98.4441Z" fill="#00050E"/>
</g>
<g id="Group_8">
<path id="Vector_8" d="M167.229 82.9684C167.924 81.545 167.662 79.9891 166.646 79.4931C165.629 78.9971 164.242 79.7488 163.547 81.1722C162.853 82.5955 163.114 84.1515 164.131 84.6475C165.148 85.1435 166.535 84.3918 167.229 82.9684Z" fill="#FFAFE6"/>
</g>
<g id="Group_9">
<path id="Vector_9" d="M178.667 88.4247C180.257 86.8131 180.612 84.5855 179.46 83.4492C178.308 82.3129 176.086 82.6982 174.496 84.3098C172.906 85.9213 172.551 88.1489 173.703 89.2852C174.855 90.4215 177.077 90.0363 178.667 88.4247Z" fill="#FFAFE6"/>
</g>
<g id="Group_10">
<path id="Vector_10" d="M183.619 108.988C183.673 107.858 182.434 106.881 180.852 106.806C179.27 106.73 177.944 107.585 177.89 108.715C177.836 109.845 179.075 110.822 180.657 110.897C182.239 110.973 183.565 110.118 183.619 108.988Z" fill="#FFAFE6"/>
</g>
<g id="Group_11">
<path id="Vector_11" d="M184.327 100.659C186.505 100.04 187.911 98.2765 187.469 96.7201C187.026 95.1638 184.902 94.404 182.725 95.0231C180.547 95.6423 179.141 97.4059 179.583 98.9622C180.026 100.519 182.15 101.278 184.327 100.659Z" fill="#FFAFE6"/>
</g>
</g>
<g id="Group_12">
<path id="Vector_12" d="M77.4418 175.25C73.3066 173.736 68.6348 175.149 64.2559 175.994C57.1703 177.36 49.8204 177.184 42.5766 176.782C33.3574 176.269 23.9178 175.333 15.7018 171.654C10.3092 169.237 4.84146 165.297 2.18146 160.454C0.877386 158.076 0.371831 155.271 1.36739 152.782C2.69998 149.446 6.20517 147.229 5.66331 143.413C5.1422 139.747 2.19442 136.763 1.07442 133.26C0.198126 130.525 2.39665 127.73 5.64776 127.473C6.7522 127.385 7.86183 127.357 8.97146 127.388L4.32294 119.646C2.68702 116.919 5.13702 113.624 8.65516 113.919C16.35 114.562 23.8063 118.583 29.3026 123.566C36.5748 130.159 41.5604 138.401 48.3296 145.388C55.0989 152.375 64.6785 158.343 75.1552 157.721L77.4418 175.25Z" fill="#DB995D"/>
</g>
<path id="Vector_13" d="M107.71 69.013H69.7627V87.2648H107.71V69.013Z" fill="#FDE9E0"/>
<path id="Vector_14" d="M18.6729 190.839H132.247C139.41 190.839 145.217 185.031 145.217 177.868V172.559C145.217 168.734 142.117 165.634 138.293 165.634H17.7655C11.0559 165.634 5.61401 171.073 5.61401 177.785C5.61661 184.995 11.4603 190.839 18.6729 190.839Z" fill="#F7E8DD"/>
<path id="Vector_15" d="M26.9484 181.28H54.7954L53.634 128.261C38.2547 128.261 24.3584 138.212 24.3584 149.386L26.9484 181.28Z" fill="#F7E8DD"/>
<path id="Vector_16" d="M25.3568 166.946C25.152 166.946 24.9808 166.787 24.9679 166.58L23.9697 150.065C23.9697 138.326 34.8949 128.793 48.3245 128.793C48.5397 128.793 48.7134 128.967 48.7134 129.182C48.7134 129.397 48.5397 129.571 48.3245 129.571C35.3227 129.571 24.7475 138.754 24.7475 150.042L25.7457 166.533C25.7586 166.749 25.5953 166.933 25.3801 166.946C25.3723 166.946 25.3645 166.946 25.3568 166.946Z" fill="#00050E"/>
<path id="Vector_17" d="M118.602 87.3426H73.7188C61.3262 87.3426 51.2773 96.6811 51.2773 108.203L52.2133 182.952H74.6547H119.538H141.979L141.043 108.203C141.041 96.6811 130.994 87.3426 118.602 87.3426Z" fill="#F7E8DD"/>
<path id="Vector_18" d="M141.977 163.394C141.761 163.394 141.588 163.22 141.588 163.005V126.146C141.588 125.931 141.761 125.757 141.977 125.757C142.192 125.757 142.365 125.931 142.365 126.146V163.005C142.365 163.22 142.192 163.394 141.977 163.394Z" fill="#00050E"/>
<path id="Vector_19" d="M133.043 194.235H119.597C112.061 194.235 105.953 188.127 105.953 180.59V169.966C105.953 165.419 109.639 161.732 114.187 161.732H133.852C140.981 161.732 146.763 167.511 146.763 174.643V180.518C146.763 188.093 140.618 194.235 133.043 194.235Z" fill="#F7E8DD"/>
<path id="Vector_20" d="M22.4945 192.895C19.4793 192.895 16.4979 191.72 14.9449 189.734C14.7816 189.527 14.6364 189.312 14.5119 189.094C13.3271 189.499 11.979 189.662 10.7086 189.281C6.57341 188.039 4.81563 183.668 5.76971 180.365C5.82934 180.157 6.04452 180.041 6.25193 180.098C6.45934 180.157 6.576 180.373 6.51897 180.58C5.6686 183.525 7.23971 187.427 10.9342 188.537C12.0049 188.858 13.1534 188.729 14.1749 188.391C13.5967 186.898 13.7938 185.226 14.7712 183.554C15.256 182.724 16.0934 182.149 16.8997 182.092C17.3612 182.058 18.0275 182.172 18.6108 182.903C19.0205 183.419 19.1838 184.01 19.093 184.663C18.9116 185.967 17.7371 187.233 16.6949 187.979C16.2853 188.272 15.7927 188.56 15.243 188.806C15.3364 188.959 15.4427 189.11 15.5567 189.257C17.4545 191.689 21.7401 192.773 25.3101 191.728C25.5175 191.669 25.7327 191.785 25.7923 191.993C25.8519 192.197 25.7353 192.415 25.5279 192.475C24.5504 192.757 23.5212 192.895 22.4945 192.895ZM17.0371 182.861C17.0086 182.861 16.9827 182.861 16.9542 182.864C16.4045 182.903 15.7953 183.339 15.4427 183.943C14.5819 185.415 14.4005 186.833 14.8982 188.106C15.4064 187.881 15.8627 187.614 16.2412 187.342C17.1097 186.717 18.1753 185.612 18.323 184.549C18.3827 184.111 18.279 183.727 18.0016 183.38C17.7242 183.038 17.4001 182.861 17.0371 182.861Z" fill="#00050E"/>
<path id="Vector_21" d="M112.673 192.773C112.66 192.773 112.647 192.773 112.634 192.77C109.212 192.439 105.797 189.19 106.168 184.889C106.282 183.569 106.933 182.374 107.744 181.423C107.589 181.226 107.441 181.01 107.309 180.782C105.6 177.866 106.196 173.1 108.67 169.932C108.802 169.764 109.046 169.733 109.217 169.865C109.385 169.997 109.416 170.241 109.284 170.412C106.995 173.347 106.424 177.728 107.983 180.391C108.079 180.551 108.18 180.704 108.286 180.85C108.716 180.43 109.167 180.077 109.59 179.807C110.669 179.115 112.279 178.49 113.557 178.801C114.197 178.957 114.687 179.328 115.014 179.901C115.478 180.71 115.338 181.376 115.136 181.791C114.783 182.519 113.943 183.084 112.992 183.23C111.076 183.523 109.45 183.09 108.276 182.001C107.586 182.828 107.042 183.847 106.946 184.961C106.614 188.806 109.66 191.705 112.712 192.003C112.924 192.024 113.082 192.213 113.062 192.428C113.041 192.623 112.87 192.773 112.673 192.773ZM108.802 181.428C109.803 182.361 111.187 182.716 112.875 182.457C113.57 182.351 114.197 181.946 114.436 181.449C114.609 181.091 114.576 180.699 114.337 180.284C114.117 179.898 113.8 179.66 113.37 179.556C112.328 179.299 110.907 179.883 110.007 180.461C109.616 180.712 109.199 181.039 108.802 181.428Z" fill="#00050E"/>
<g id="Group_13">
<path id="Vector_22" d="M82.0411 97.4693C79.7829 93.6893 75.4844 91.1381 70.3303 89.2974C48.8196 92.367 50.5541 99.7093 50.5541 99.7093C50.5541 99.7093 48.3866 128.617 53.3048 123.732C53.3048 123.732 67.1985 134.043 78.2559 112.146C79.057 110.559 82.4144 107.889 83.3011 104.524C83.9233 102.157 83.3633 99.6807 82.0411 97.4693Z" fill="#DB995D"/>
</g>
<path id="Vector_23" d="M50.0925 155.157C49.88 155.157 49.7037 154.983 49.7037 154.771L49.3848 102.496C49.3848 95.4263 56.657 89.6785 65.5962 89.6785C65.8114 89.6785 65.9851 89.8522 65.9851 90.0674C65.9851 90.2826 65.8114 90.4563 65.5962 90.4563C57.0874 90.4563 50.1625 95.8567 50.1625 102.494L50.4814 154.766C50.4814 154.981 50.3103 155.157 50.0925 155.157Z" fill="#00050E"/>
<path id="Vector_24" d="M141.528 163.394H121.651C121.435 163.394 121.262 163.22 121.262 163.005C121.262 162.79 121.435 162.616 121.651 162.616H141.528C141.743 162.616 141.917 162.79 141.917 163.005C141.917 163.22 141.741 163.394 141.528 163.394Z" fill="#00050E"/>
<path id="Vector_25" d="M150.05 32.8152C151.279 34.5263 152.303 36.5615 152.705 38.9674C152.987 40.6578 152.889 42.47 152.028 44.5156C150.607 47.9015 146.693 51.0515 142.371 52.34C138.42 53.517 134.93 53.6259 131.648 53.3381C126.089 52.8507 121.28 51.4118 116.841 49.5167C112.706 47.7511 108.983 45.5941 105.719 43.0015C102.681 40.5878 100.034 37.8681 98.2577 34.5133C97.1274 32.3796 96.2951 30.0748 96.7462 27.1607C97.2129 24.1404 98.9525 21.2756 102.792 18.8437C105.25 17.2856 107.736 16.5467 110.166 16.1604C115.25 15.3541 119.533 15.8933 123.6 16.78C129.786 18.1281 135.08 20.4563 139.781 23.4041C143.838 25.9448 147.395 28.9056 150.05 32.8152Z" fill="black"/>
<path id="Vector_26" d="M147.965 78.9322C147.364 81.8774 146.228 84.9211 144.095 87.6744C142.596 89.6085 140.605 91.26 137.629 92.3437C132.705 94.1352 125.612 93.093 120.074 89.8159C115.014 86.8189 111.516 83.2722 108.638 79.5544C103.762 73.2596 100.607 66.83 98.2888 60.3433C96.1292 54.3 94.781 48.3111 94.3325 42.3819C93.9151 36.8596 94.1977 31.4541 95.9892 26.3389C97.1299 23.0878 98.7347 19.9819 102.224 17.6304C105.841 15.1933 110.526 14.2393 116.792 15.9011C120.808 16.9667 123.989 18.8515 126.748 21.0215C132.521 25.5663 136.107 30.5726 139.12 35.6904C143.703 43.4785 146.394 51.277 147.867 59.0574C149.137 65.767 149.485 72.3626 147.965 78.9322Z" fill="black"/>
<g id="Group_14">
<g id="Group_15">
<path id="Vector_27" d="M60.7921 106.284C59.1744 98.3326 60.2607 94.0574 64.8651 89.4219C69.0133 85.2452 74.1647 84.5089 79.6455 85.2659C86.184 86.1682 91.8955 89.1704 97.2466 92.9426C98.3303 93.7074 99.0588 93.7541 100.117 93.0826C105.491 89.663 111.205 87.1274 117.503 86.1604C120.909 85.6367 124.295 85.7145 127.57 86.8863C134.43 89.3441 138.163 95.9448 137.035 103.749C135.671 113.165 129.903 120.779 123.325 127.097C99.8107 149.687 88.1362 140.206 88.1362 140.206C88.1362 140.206 68.1862 128.176 61.5414 109.037C61.2018 108.052 60.9918 107.023 60.7921 106.284Z" fill="#FFAFE6"/>
</g>
</g>
<path id="Vector_28" d="M29.7459 48.63C29.1444 50.6496 28.8411 52.9052 29.2481 55.3111C29.5333 57.0015 30.2203 58.6815 31.7007 60.333C34.1507 63.0681 38.8796 64.7663 43.3855 64.5693C47.5025 64.3904 50.8366 63.3533 53.844 62.0078C58.9385 59.7289 63.0114 56.7967 66.5892 53.5559C69.9207 50.5355 72.7336 47.2793 74.9685 43.7611C77.0503 40.4867 78.6629 37.0515 79.2462 33.2974C79.617 30.9122 79.6507 28.4622 78.2714 25.8541C76.8429 23.1526 74.2607 21.0137 69.8403 19.9715C67.0066 19.3026 64.4166 19.4167 61.9951 19.847C56.9266 20.7467 53.0533 22.6574 49.5014 24.8248C44.0959 28.1226 39.8544 32.053 36.3751 36.3748C33.3703 40.1056 30.9773 44.067 29.7459 48.63Z" fill="black"/>
<path id="Vector_29" d="M46.7947 91.5322C48.3269 94.117 50.3958 96.6241 53.3099 98.5296C55.358 99.8674 57.7795 100.777 60.9477 100.829C66.1847 100.912 72.5495 97.6093 76.7106 92.6989C80.514 88.2111 82.658 83.7156 84.1643 79.2615C86.7154 71.717 87.5943 64.6107 87.6643 57.7222C87.7291 51.3056 87.0447 45.2052 85.5306 39.4522C84.1203 34.0985 82.0851 29.0793 78.7173 24.8326C76.5784 22.1337 74.0428 19.7226 69.9777 18.6415C65.7621 17.5189 61.0228 18.1515 55.6458 21.7707C52.2003 24.0911 49.8073 26.9119 47.9121 29.8648C43.9402 36.0456 42.1902 41.9515 41.0158 47.7745C39.2295 56.6333 39.2347 64.883 40.3884 72.7152C41.3814 79.4715 43.2117 85.8182 46.7947 91.5322Z" fill="black"/>
<path id="Vector_30" d="M57.9897 21.1667C57.6605 21.1667 57.326 21.1433 56.9916 21.0967C55.6071 20.8996 54.4482 20.0882 53.5694 19.1004C53.1208 19.427 52.6205 19.7044 52.0682 19.9274C48.6901 21.2963 44.2542 20.2541 41.5216 17.4515C38.9316 14.7941 37.4979 11.0996 37.6923 7.56592C37.8505 4.67259 39.0768 2.19926 41.2416 0.412962C41.4075 0.275555 41.6512 0.298887 41.7886 0.464813C41.926 0.630739 41.9027 0.874443 41.7368 1.01185C39.7457 2.65296 38.6153 4.93445 38.4701 7.60482C38.2912 10.8741 39.6757 14.4389 42.0816 16.907C44.6042 19.4944 48.6823 20.4615 51.7779 19.2067C52.2549 19.0122 52.6905 18.7737 53.0794 18.4911C52.6853 17.9519 52.3716 17.3893 52.1434 16.863C51.4564 15.2685 50.7694 11.9293 53.0794 10.6926C53.9971 10.2026 54.6738 10.3919 55.0834 10.6381C55.8145 11.0763 56.2838 12.0822 56.2812 13.197C56.276 15.4681 55.5371 17.3219 54.1656 18.6052C54.9305 19.4607 55.926 20.1581 57.1005 20.3241C61.1501 20.9022 64.7616 17.4567 65.5912 13.8737C65.6405 13.6637 65.8479 13.5341 66.0579 13.5833C66.2679 13.6326 66.3975 13.84 66.3482 14.05C65.5108 17.6744 62.0445 21.1667 57.9897 21.1667ZM54.1838 11.167C53.9582 11.167 53.7145 11.237 53.4501 11.3796C51.6379 12.3467 52.2731 15.1882 52.8616 16.5544C53.0612 17.0185 53.336 17.5163 53.6782 17.9907C54.8656 16.85 55.5008 15.2063 55.506 13.1944C55.5086 12.3596 55.1794 11.6 54.6868 11.3044C54.5312 11.2111 54.3627 11.167 54.1838 11.167Z" fill="#00050E"/>
<path id="Vector_31" d="M119.185 24.2519L133.136 64.5719C136.195 73.4178 131.508 83.07 122.662 86.1293L89.0334 97.7648C80.1875 100.824 70.5353 96.1367 67.476 87.2907L53.5253 46.9707C49.136 34.2826 55.8638 20.4356 68.5519 16.0463L88.2582 9.22778C100.949 4.83592 114.793 11.5637 119.185 24.2519Z" fill="#F7E8DD"/>
<g id="Group_16">
<g id="Clip path group">
<mask id="mask0_1_1271" style="mask-type:luminance" maskUnits="userSpaceOnUse" x="51" y="7" width="85" height="94">
<g id="SVGID_00000019665315447609154010000004986486034407294613_">
<path id="Vector_32" d="M118.915 23.4715L135.202 70.5452C137.121 76.0907 134.181 82.1419 128.635 84.0604L83.0573 99.8285C77.5117 101.747 71.4606 98.807 69.5421 93.2615L53.2554 46.1904C49.014 33.9326 55.5136 20.5548 67.7714 16.3133L89.0384 8.95555C101.299 4.71407 114.674 11.2137 118.915 23.4715Z" fill="white"/>
</g>
</mask>
<g mask="url(#mask0_1_1271)">
<g id="Group_17">
<path id="Vector_33" d="M65.7622 14.0474C66.0993 21.4622 71.7537 27.3837 76.8922 32.7374C82.0333 38.0911 87.3352 44.5467 86.7026 51.9433C86.4252 55.1711 85.0148 58.1837 83.5267 61.0615C81.4215 65.1318 79.1115 69.0985 76.6096 72.9381C74.4319 76.2852 71.873 79.7204 68.1137 81.0685C66.1381 81.7789 63.74 81.7711 62.1352 80.4152C61.1085 79.5467 60.5485 78.2581 60.0222 77.0189C51.5289 57.0067 42.8852 36.2737 43.1393 14.5348C49.7659 18.1385 58.2619 18.0244 64.79 14.247" fill="#DB995D"/>
</g>
</g>
</g>
<g id="Clip path group_2">
<mask id="mask1_1_1271" style="mask-type:luminance" maskUnits="userSpaceOnUse" x="51" y="7" width="85" height="94">
<g id="SVGID_00000019665315447609154010000004986486034407294613__2">
<path id="Vector_34" d="M118.915 23.4715L135.202 70.5452C137.121 76.0907 134.181 82.1419 128.635 84.0604L83.0573 99.8285C77.5117 101.747 71.4606 98.807 69.5421 93.2615L53.2554 46.1904C49.014 33.9326 55.5136 20.5548 67.7714 16.3133L89.0384 8.95555C101.299 4.71407 114.674 11.2137 118.915 23.4715Z" fill="white"/>
</g>
</mask>
<g mask="url(#mask1_1_1271)">
<g id="Group_18">
<path id="Vector_35" d="M89.2122 5.9326C93.5314 11.9707 92.7433 20.1193 92.0122 27.5056C91.281 34.8919 91.0996 43.2452 96.1681 48.6689C98.3796 51.0359 101.351 52.5319 104.301 53.8748C108.473 55.7726 112.74 57.463 117.08 58.9382C120.86 60.2215 124.995 61.3415 128.783 60.0815C130.777 59.4178 132.656 57.9296 133.079 55.8737C133.348 54.5541 132.996 53.1982 132.643 51.8993C126.953 30.9174 120.935 9.27704 107.301 -7.65778C104.319 -0.730368 97.5681 4.43148 90.1014 5.49704" fill="#DB995D"/>
</g>
</g>
</g>
</g>
<path id="Vector_36" d="M99.8626 57.4111L99.5774 57.0844C96.4404 53.4911 90.62 54.4452 88.7949 58.85C87.5738 61.7952 89.8708 64.997 93.0519 64.7819L96.9148 64.5226C100.462 64.2841 102.201 60.0893 99.8626 57.4111Z" fill="#00050E"/>
<path id="Vector_37" d="M95.8752 75.3752C95.673 75.3752 95.5019 75.217 95.4863 75.0122L94.7163 63.5426C94.7033 63.3274 94.8641 63.1433 95.0793 63.1278C95.2893 63.1122 95.4785 63.2756 95.4941 63.4907L96.2641 74.9604C96.2771 75.1756 96.1163 75.3596 95.9011 75.3752C95.8908 75.3752 95.883 75.3752 95.8752 75.3752Z" fill="#00050E"/>
<path id="Vector_38" d="M95.7947 75.5826C95.7481 75.5826 95.7014 75.5748 95.6547 75.5567L88.6003 72.8474C88.4007 72.7696 88.2996 72.5441 88.3773 72.3444C88.4551 72.1448 88.6781 72.0437 88.8803 72.1215L95.9347 74.8307C96.1344 74.9085 96.2355 75.1341 96.1577 75.3337C96.0981 75.4867 95.9503 75.5826 95.7947 75.5826Z" fill="#00050E"/>
<g id="Layer_9_copy">
<path id="Vector_39" d="M59.6748 174.682C59.4596 174.682 59.2859 174.508 59.2859 174.293V156.046C59.2859 155.831 59.4596 155.657 59.6748 155.657C59.89 155.657 60.0637 155.831 60.0637 156.046V174.293C60.0637 174.508 59.89 174.682 59.6748 174.682Z" fill="#00050E"/>
<path id="Vector_40" d="M57.8884 200.73H68.1395C74.6858 200.73 79.9928 195.423 79.9928 188.876V184.79C79.9928 180.813 76.7702 177.591 72.7932 177.591H57.191C50.9947 177.591 45.9702 182.615 45.9702 188.811C45.9702 195.394 51.3058 200.73 57.8884 200.73Z" fill="#FDE9E0"/>
<path id="Vector_41" d="M59.5839 201.069C57.3932 201.069 55.2258 200.193 53.8854 198.64C53.6002 198.311 53.3643 197.963 53.1725 197.603C52.2262 197.956 51.158 198.09 50.1469 197.74C46.8154 196.592 45.3947 192.568 46.1595 189.532C46.2114 189.325 46.4239 189.198 46.6314 189.25C46.8388 189.301 46.9658 189.514 46.9139 189.721C46.2347 192.423 47.474 195.996 50.401 197.004C51.2125 197.284 52.0836 197.178 52.8665 196.89C52.4051 195.529 52.5632 194.01 53.3514 192.459C53.7532 191.669 54.4584 191.127 55.1428 191.08C55.5317 191.054 56.0943 191.168 56.5739 191.858C57.6032 193.343 56.4988 195.319 55.0339 196.527C54.7099 196.794 54.321 197.056 53.888 197.281C54.0462 197.577 54.2406 197.86 54.4739 198.129C56.1306 200.048 59.2184 200.805 61.8162 199.931C62.021 199.864 62.2414 199.973 62.3088 200.175C62.3762 200.377 62.2673 200.6 62.0651 200.667C61.2639 200.94 60.4214 201.069 59.5839 201.069ZM55.2388 191.855C55.2232 191.855 55.2102 191.855 55.1947 191.858C54.7902 191.886 54.3184 192.278 54.0436 192.814C53.3721 194.131 53.2217 195.417 53.5847 196.566C53.9425 196.374 54.2665 196.154 54.5388 195.928C55.5395 195.104 56.7347 193.457 55.9336 192.301C55.7288 192.006 55.4954 191.855 55.2388 191.855Z" fill="#00050E"/>
<path id="Vector_42" d="M78.8261 191.933C78.611 191.933 78.4373 191.759 78.4373 191.544V133.703C78.4373 133.488 78.611 133.314 78.8261 133.314C79.0413 133.314 79.215 133.488 79.215 133.703V191.541C79.215 191.757 79.0413 191.933 78.8261 191.933Z" fill="#00050E"/>
</g>
<path id="Vector_43" d="M78.1756 54.8807C80.5367 54.8807 82.4508 52.9667 82.4508 50.6056C82.4508 48.2444 80.5367 46.3304 78.1756 46.3304C75.8145 46.3304 73.9004 48.2444 73.9004 50.6056C73.9004 52.9667 75.8145 54.8807 78.1756 54.8807Z" fill="#00050E"/>
<path id="Vector_44" d="M101.942 46.32C104.303 46.32 106.217 44.4059 106.217 42.0448C106.217 39.6837 104.303 37.7696 101.942 37.7696C99.5808 37.7696 97.6667 39.6837 97.6667 42.0448C97.6667 44.4059 99.5808 46.32 101.942 46.32Z" fill="#00050E"/>
</g>
</svg>
