<svg width="25" height="24" viewBox="0 0 25 24" fill="none" xmlns="http://www.w3.org/2000/svg">
<g id="icon/journey_24px">
<path id="grid_view" d="M5.75 11C5.2 11 4.72917 10.8042 4.3375 10.4125C3.94583 10.0208 3.75 9.55 3.75 9V5C3.75 4.45 3.94583 3.97917 4.3375 3.5875C4.72917 3.19583 5.2 3 5.75 3H9.75C10.3 3 10.7708 3.19583 11.1625 3.5875C11.5542 3.97917 11.75 4.45 11.75 5V9C11.75 9.55 11.5542 10.0208 11.1625 10.4125C10.7708 10.8042 10.3 11 9.75 11H5.75ZM5.75 21C5.2 21 4.72917 20.8042 4.3375 20.4125C3.94583 20.0208 3.75 19.55 3.75 19V15C3.75 14.45 3.94583 13.9792 4.3375 13.5875C4.72917 13.1958 5.2 13 5.75 13H9.75C10.3 13 10.7708 13.1958 11.1625 13.5875C11.5542 13.9792 11.75 14.45 11.75 15V19C11.75 19.55 11.5542 20.0208 11.1625 20.4125C10.7708 20.8042 10.3 21 9.75 21H5.75ZM15.75 11C15.2 11 14.7292 10.8042 14.3375 10.4125C13.9458 10.0208 13.75 9.55 13.75 9V5C13.75 4.45 13.9458 3.97917 14.3375 3.5875C14.7292 3.19583 15.2 3 15.75 3H19.75C20.3 3 20.7708 3.19583 21.1625 3.5875C21.5542 3.97917 21.75 4.45 21.75 5V9C21.75 9.55 21.5542 10.0208 21.1625 10.4125C20.7708 10.8042 20.3 11 19.75 11H15.75ZM15.75 21C15.2 21 14.7292 20.8042 14.3375 20.4125C13.9458 20.0208 13.75 19.55 13.75 19V15C13.75 14.45 13.9458 13.9792 14.3375 13.5875C14.7292 13.1958 15.2 13 15.75 13H19.75C20.3 13 20.7708 13.1958 21.1625 13.5875C21.5542 13.9792 21.75 14.45 21.75 15V19C21.75 19.55 21.5542 20.0208 21.1625 20.4125C20.7708 20.8042 20.3 21 19.75 21H15.75ZM5.75 9H9.75V5H5.75V9ZM15.75 9H19.75V5H15.75V9ZM15.75 19H19.75V15H15.75V19ZM5.75 19H9.75V15H5.75V19Z" fill="#3A484D"/>
</g>
</svg>
