<svg width="227" height="186" viewBox="0 0 227 186" fill="none" xmlns="http://www.w3.org/2000/svg">
<path id="Vector" d="M123.66 36.9399C129.468 36.875 135.217 36.1893 140.801 36.8678C158.563 39.033 170.921 49.2818 179.477 64.6478C180.602 66.6615 181.75 67.5781 184.145 67.7008C198.559 68.437 209.488 75.5245 217.099 87.52C227.07 103.232 228.116 120.359 223.109 138.028C219.401 151.113 212.374 162.076 201.351 170.167C192.21 176.879 182.009 179.954 170.704 178.864C165.344 178.352 160.402 176.519 155.771 173.87C154.429 173.098 153.462 173.025 152.07 173.87C141.797 180.163 130.73 183.05 118.726 181.477C109.982 180.337 102.14 176.944 95.2648 171.409C93.8508 170.268 93.0067 170.29 91.5927 171.466C82.142 179.333 71.5731 184.826 59.1934 185.771C43.5528 186.969 30.5816 181.167 20.1497 169.626C8.9243 157.205 3.52802 142.041 1.40702 125.664C-2.52476 95.2932 3.35488 66.7337 18.6564 40.26C26.9023 25.9982 37.6443 14.01 52.5779 6.53995C76.082 -5.22453 101.253 1.49494 115.833 23.4505C118.812 27.9325 121.258 32.7827 123.653 36.9472L123.66 36.9399Z" fill="#6BDFF2"/>
</svg>
