<svg width="216" height="163" viewBox="0 0 216 163" fill="none" xmlns="http://www.w3.org/2000/svg">
<path id="Vector" d="M210.803 75.3415C216.942 92.1736 218.37 108.05 207.901 122.931C198.471 136.329 184.543 140.972 168.954 141.759C150.359 142.696 133.011 137.538 116.273 130.117C112.885 128.615 110.834 128.862 108.238 131.217C95.0303 143.21 80.4273 152.992 63.4295 158.839C54.2328 162.006 44.7961 163.541 35.1321 162.065C14.8697 158.969 1.21432 143.08 0.454966 121.454C-0.453663 95.354 11.7609 71.8425 26.8636 51.4137C47.3857 23.6485 67.5572 -4.61094 106.096 0.72876C108.731 1.09298 111.269 2.11406 113.904 2.48478C136.834 5.66519 156.252 16.3706 174.548 29.9833C188.47 40.3375 199.133 53.2153 207.35 68.3173C208.719 70.8343 209.881 73.4619 210.803 75.3545V75.3415Z" fill="#DFE287"/>
</svg>
